<svg width="96" height="96" viewBox="0 0 96 96" xmlns="http://www.w3.org/2000/svg">
    <defs>
      <linearGradient id="cdGrad" x1="0%" y1="0%" x2="100%" y2="100%">
        <stop offset="0%" style="stop-color:#F59E0B;stop-opacity:1" />
        <stop offset="100%" style="stop-color:#D97706;stop-opacity:1" />
      </linearGradient>
    </defs>
    <rect width="96" height="96" rx="20" fill="url(#cdGrad)"/>
    <!-- Pipeline arrows -->
    <path d="M 20 30 L 40 30 L 35 25 M 40 30 L 35 35" stroke="white" stroke-width="3" fill="none" opacity="0.9"/>
    <path d="M 45 30 L 65 30 L 60 25 M 65 30 L 60 35" stroke="white" stroke-width="3" fill="none" opacity="0.8"/>
    <path d="M 70 30 L 76 30" stroke="white" stroke-width="3" fill="none" opacity="0.7"/>
    
    <!-- Code blocks -->
    <rect x="25" y="45" width="20" height="12" rx="3" fill="white" opacity="0.8"/>
    <rect x="28" y="48" width="12" height="2" rx="1" fill="url(#cdGrad)"/>
    <rect x="28" y="52" width="8" height="2" rx="1" fill="url(#cdGrad)" opacity="0.7"/>
    
    <rect x="50" y="45" width="20" height="12" rx="3" fill="white" opacity="0.8"/>
    <rect x="53" y="48" width="12" height="2" rx="1" fill="url(#cdGrad)"/>
    <rect x="53" y="52" width="8" height="2" rx="1" fill="url(#cdGrad)" opacity="0.7"/>
    
    <!-- Automation gear -->
    <circle cx="48" cy="75" r="8" fill="white" opacity="0.8"/>
    <circle cx="48" cy="75" r="4" fill="url(#cdGrad)"/>
    <rect x="46" y="67" width="4" height="4" fill="url(#cdGrad)"/>
    <rect x="46" y="79" width="4" height="4" fill="url(#cdGrad)"/>
    <rect x="67" y="73" width="4" height="4" fill="url(#cdGrad)"/>
    <rect x="29" y="73" width="4" height="4" fill="url(#cdGrad)"/>
  </svg>