<svg width="96" height="96" viewBox="0 0 96 96" xmlns="http://www.w3.org/2000/svg">
    <defs>
      <linearGradient id="ciGrad" x1="0%" y1="0%" x2="100%" y2="100%">
        <stop offset="0%" style="stop-color:#3B82F6;stop-opacity:1" />
        <stop offset="100%" style="stop-color:#1E40AF;stop-opacity:1" />
      </linearGradient>
    </defs>
    <rect width="96" height="96" rx="20" fill="url(#ciGrad)"/>
    <!-- Cloud shapes -->
    <ellipse cx="30" cy="35" rx="15" ry="8" fill="white" opacity="0.9"/>
    <ellipse cx="45" cy="32" rx="12" ry="6" fill="white" opacity="0.8"/>
    <ellipse cx="60" cy="38" rx="14" ry="7" fill="white" opacity="0.7"/>
    
    <!-- Server racks -->
    <rect x="25" y="50" width="12" height="18" rx="2" fill="white" opacity="0.8"/>
    <rect x="27" y="52" width="8" height="2" rx="1" fill="url(#ciGrad)"/>
    <rect x="27" y="56" width="8" height="2" rx="1" fill="url(#ciGrad)"/>
    <rect x="27" y="60" width="8" height="2" rx="1" fill="url(#ciGrad)"/>
    
    <rect x="42" y="50" width="12" height="18" rx="2" fill="white" opacity="0.8"/>
    <rect x="44" y="52" width="8" height="2" rx="1" fill="url(#ciGrad)"/>
    <rect x="44" y="56" width="8" height="2" rx="1" fill="url(#ciGrad)"/>
    <rect x="44" y="60" width="8" height="2" rx="1" fill="url(#ciGrad)"/>
    
    <rect x="59" y="50" width="12" height="18" rx="2" fill="white" opacity="0.8"/>
    <rect x="61" y="52" width="8" height="2" rx="1" fill="url(#ciGrad)"/>
    <rect x="61" y="56" width="8" height="2" rx="1" fill="url(#ciGrad)"/>
    <rect x="61" y="60" width="8" height="2" rx="1" fill="url(#ciGrad)"/>
  </svg>