<svg width="96" height="96" viewBox="0 0 96 96" xmlns="http://www.w3.org/2000/svg">
    <defs>
      <linearGradient id="lmGrad" x1="0%" y1="0%" x2="100%" y2="100%">
        <stop offset="0%" style="stop-color:#10B981;stop-opacity:1" />
        <stop offset="100%" style="stop-color:#059669;stop-opacity:1" />
      </linearGradient>
    </defs>
    <rect width="96" height="96" rx="20" fill="url(#lmGrad)"/>
    <rect x="20" y="25" width="25" height="35" rx="3" fill="white" opacity="0.9"/>
    <rect x="22" y="27" width="21" height="4" rx="1" fill="url(#lmGrad)"/>
    <rect x="22" y="33" width="17" height="3" rx="1" fill="url(#lmGrad)" opacity="0.7"/>
    <rect x="22" y="38" width="19" height="3" rx="1" fill="url(#lmGrad)" opacity="0.7"/>
    <rect x="22" y="43" width="15" height="3" rx="1" fill="url(#lmGrad)" opacity="0.7"/>
    <rect x="22" y="48" width="21" height="3" rx="1" fill="url(#lmGrad)" opacity="0.7"/>
    <rect x="22" y="53" width="18" height="3" rx="1" fill="url(#lmGrad)" opacity="0.7"/>
    <rect x="50" y="25" width="25" height="35" rx="3" fill="white" opacity="0.8"/>
    <rect x="52" y="27" width="21" height="4" rx="1" fill="url(#lmGrad)"/>
    <rect x="52" y="33" width="17" height="3" rx="1" fill="url(#lmGrad)" opacity="0.7"/>
    <rect x="52" y="38" width="19" height="3" rx="1" fill="url(#lmGrad)" opacity="0.7"/>
    <rect x="52" y="43" width="15" height="3" rx="1" fill="url(#lmGrad)" opacity="0.7"/>
    <rect x="52" y="48" width="21" height="3" rx="1" fill="url(#lmGrad)" opacity="0.7"/>
    <rect x="52" y="53" width="18" height="3" rx="1" fill="url(#lmGrad)" opacity="0.7"/>
    <path d="M 45 42 L 50 42" stroke="white" stroke-width="2" fill="none" opacity="0.8"/>
    <path d="M 47 42 L 45 40 M 47 42 L 45 44" stroke="white" stroke-width="2" fill="none" opacity="0.8"/>
    <ellipse cx="35" cy="75" rx="8" ry="4" fill="white" opacity="0.7"/>
    <ellipse cx="60" cy="75" rx="8" ry="4" fill="white" opacity="0.7"/>
  </svg>