<svg width="96" height="96" viewBox="0 0 96 96" xmlns="http://www.w3.org/2000/svg">
    <defs>
      <linearGradient id="mlGrad" x1="0%" y1="0%" x2="100%" y2="100%">
        <stop offset="0%" style="stop-color:#8B5CF6;stop-opacity:1" />
        <stop offset="100%" style="stop-color:#7C3AED;stop-opacity:1" />
      </linearGradient>
    </defs>
    <rect width="96" height="96" rx="20" fill="url(#mlGrad)"/>
    <!-- Neural network nodes -->
    <circle cx="30" cy="25" r="4" fill="white" opacity="0.9"/>
    <circle cx="30" cy="40" r="4" fill="white" opacity="0.9"/>
    <circle cx="30" cy="55" r="4" fill="white" opacity="0.9"/>
    
    <circle cx="50" cy="20" r="4" fill="white" opacity="0.8"/>
    <circle cx="50" cy="35" r="4" fill="white" opacity="0.8"/>
    <circle cx="50" cy="50" r="4" fill="white" opacity="0.8"/>
    <circle cx="50" cy="65" r="4" fill="white" opacity="0.8"/>
    
    <circle cx="70" cy="30" r="4" fill="white" opacity="0.7"/>
    <circle cx="70" cy="50" r="4" fill="white" opacity="0.7"/>
    
    <!-- Connection lines -->
    <path d="M 34 25 L 46 20" stroke="white" stroke-width="1.5" fill="none" opacity="0.6"/>
    <path d="M 34 25 L 46 35" stroke="white" stroke-width="1.5" fill="none" opacity="0.6"/>
    <path d="M 34 40 L 46 35" stroke="white" stroke-width="1.5" fill="none" opacity="0.6"/>
    <path d="M 34 40 L 46 50" stroke="white" stroke-width="1.5" fill="none" opacity="0.6"/>
    <path d="M 34 55 L 46 50" stroke="white" stroke-width="1.5" fill="none" opacity="0.6"/>
    <path d="M 34 55 L 46 65" stroke="white" stroke-width="1.5" fill="none" opacity="0.6"/>
    
    <path d="M 54 20 L 66 30" stroke="white" stroke-width="1.5" fill="none" opacity="0.6"/>
    <path d="M 54 20 L 66 50" stroke="white" stroke-width="1.5" fill="none" opacity="0.6"/>
    <path d="M 54 35 L 66 30" stroke="white" stroke-width="1.5" fill="none" opacity="0.6"/>
    <path d="M 54 35 L 66 50" stroke="white" stroke-width="1.5" fill="none" opacity="0.6"/>
    <path d="M 54 50 L 66 30" stroke="white" stroke-width="1.5" fill="none" opacity="0.6"/>
    <path d="M 54 50 L 66 50" stroke="white" stroke-width="1.5" fill="none" opacity="0.6"/>
    <path d="M 54 65 L 66 50" stroke="white" stroke-width="1.5" fill="none" opacity="0.6"/>
  </svg>