<svg width="96" height="96" viewBox="0 0 96 96" xmlns="http://www.w3.org/2000/svg">
    <defs>
      <linearGradient id="pmGrad" x1="0%" y1="0%" x2="100%" y2="100%">
        <stop offset="0%" style="stop-color:#3B82F6;stop-opacity:1" />
        <stop offset="100%" style="stop-color:#1E40AF;stop-opacity:1" />
      </linearGradient>
    </defs>
    <rect width="96" height="96" rx="20" fill="url(#pmGrad)"/>
    <rect x="25" y="35" width="46" height="25" rx="3" fill="white" opacity="0.9"/>
    <rect x="27" y="37" width="42" height="4" rx="1" fill="url(#pmGrad)"/>
    <rect x="27" y="43" width="42" height="4" rx="1" fill="url(#pmGrad)" opacity="0.7"/>
    <rect x="27" y="49" width="42" height="4" rx="1" fill="url(#pmGrad)" opacity="0.7"/>
    <path d="M 30 70 L 40 70 L 45 60 L 65 60 L 70 70 L 80 70" stroke="white" stroke-width="3" fill="none" opacity="0.9"/>
    <circle cx="35" cy="80" r="5" fill="white" opacity="0.8"/>
    <circle cx="75" cy="80" r="5" fill="white" opacity="0.8"/>
    <rect x="35" y="65" width="40" height="10" rx="2" fill="white" opacity="0.7"/>
    <circle cx="48" cy="90" r="6" fill="white" opacity="0.8"/>
    <path d="M 45 90 L 47 92 L 51 88" stroke="url(#pmGrad)" stroke-width="2" fill="none"/>
  </svg>