<svg width="96" height="96" viewBox="0 0 96 96" xmlns="http://www.w3.org/2000/svg">
    <defs>
      <linearGradient id="rdGrad" x1="0%" y1="0%" x2="100%" y2="100%">
        <stop offset="0%" style="stop-color:#EF4444;stop-opacity:1" />
        <stop offset="100%" style="stop-color:#DC2626;stop-opacity:1" />
      </linearGradient>
    </defs>
    <rect width="96" height="96" rx="20" fill="url(#rdGrad)"/>
    <!-- Microscope -->
    <rect x="35" y="25" width="26" height="8" rx="4" fill="white" opacity="0.9"/>
    <rect x="40" y="33" width="16" height="20" fill="white" opacity="0.8"/>
    <circle cx="48" cy="60" r="8" fill="white" opacity="0.7"/>
    
    <!-- Test tubes -->
    <rect x="25" y="45" width="6" height="15" rx="3" fill="white" opacity="0.6"/>
    <rect x="35" y="50" width="6" height="10" rx="3" fill="white" opacity="0.6"/>
    <rect x="65" y="48" width="6" height="12" rx="3" fill="white" opacity="0.6"/>
    
    <!-- Research papers -->
    <rect x="20" y="70" width="12" height="16" rx="2" fill="white" opacity="0.8"/>
    <rect x="22" y="72" width="8" height="2" rx="1" fill="url(#rdGrad)"/>
    <rect x="22" y="76" width="6" height="2" rx="1" fill="url(#rdGrad)" opacity="0.7"/>
    <rect x="22" y="80" width="8" height="2" rx="1" fill="url(#rdGrad)" opacity="0.7"/>
    
    <rect x="64" y="70" width="12" height="16" rx="2" fill="white" opacity="0.8"/>
    <rect x="66" y="72" width="8" height="2" rx="1" fill="url(#rdGrad)"/>
    <rect x="66" y="76" width="6" height="2" rx="1" fill="url(#rdGrad)" opacity="0.7"/>
    <rect x="66" y="80" width="8" height="2" rx="1" fill="url(#rdGrad)" opacity="0.7"/>
  </svg>