<svg width="96" height="96" viewBox="0 0 96 96" xmlns="http://www.w3.org/2000/svg">
    <defs>
      <linearGradient id="vmGrad" x1="0%" y1="0%" x2="100%" y2="100%">
        <stop offset="0%" style="stop-color:#8B5CF6;stop-opacity:1" />
        <stop offset="100%" style="stop-color:#7C3AED;stop-opacity:1" />
      </linearGradient>
    </defs>
    <rect width="96" height="96" rx="20" fill="url(#vmGrad)"/>
    <circle cx="30" cy="35" r="10" fill="white" opacity="0.9"/>
    <circle cx="30" cy="35" r="5" fill="url(#vmGrad)"/>
    <circle cx="50" cy="35" r="10" fill="white" opacity="0.8"/>
    <circle cx="50" cy="35" r="5" fill="url(#vmGrad)"/>
    <circle cx="70" cy="35" r="10" fill="white" opacity="0.7"/>
    <circle cx="70" cy="35" r="5" fill="url(#vmGrad)"/>
    <path d="M 40 35 L 50 35" stroke="white" stroke-width="2" fill="none" opacity="0.6"/>
    <path d="M 60 35 L 70 35" stroke="white" stroke-width="2" fill="none" opacity="0.6"/>
    <circle cx="50" cy="65" r="12" fill="white" opacity="0.8"/>
    <path d="M 46 65 L 49 68 L 54 63" stroke="url(#vmGrad)" stroke-width="2" fill="none"/>
    <path d="M 50 55 L 50 62" stroke="url(#vmGrad)" stroke-width="2" fill="none"/>
    <rect x="25" y="75" width="15" height="15" rx="2" fill="white" opacity="0.7"/>
    <rect x="27" y="77" width="11" height="2" rx="1" fill="url(#vmGrad)"/>
    <rect x="27" y="81" width="8" height="2" rx="1" fill="url(#vmGrad)" opacity="0.7"/>
    <rect x="27" y="85" width="10" height="2" rx="1" fill="url(#vmGrad)" opacity="0.7"/>
    <rect x="60" y="75" width="15" height="15" rx="2" fill="white" opacity="0.7"/>
    <rect x="62" y="77" width="11" height="2" rx="1" fill="url(#vmGrad)"/>
    <rect x="62" y="81" width="8" height="2" rx="1" fill="url(#vmGrad)" opacity="0.7"/>
    <rect x="62" y="85" width="10" height="2" rx="1" fill="url(#vmGrad)" opacity="0.7"/>
  </svg>