<svg width="800" height="600" viewBox="0 0 800 600" xmlns="http://www.w3.org/2000/svg">
  <defs>
    <linearGradient id="aiGrad1" x1="0%" y1="0%" x2="100%" y2="100%">
      <stop offset="0%" style="stop-color:#8B5CF6;stop-opacity:1" />
      <stop offset="50%" style="stop-color:#7C3AED;stop-opacity:1" />
      <stop offset="100%" style="stop-color:#6D28D9;stop-opacity:1" />
    </linearGradient>
    <linearGradient id="aiGrad2" x1="0%" y1="0%" x2="100%" y2="0%">
      <stop offset="0%" style="stop-color:#A78BFA;stop-opacity:0.8" />
      <stop offset="100%" style="stop-color:#8B5CF6;stop-opacity:0.8" />
    </linearGradient>
    <filter id="aiGlow">
      <feGaussianBlur stdDeviation="2" result="coloredBlur"/>
      <feMerge> 
        <feMergeNode in="coloredBlur"/>
        <feMergeNode in="SourceGraphic"/>
      </feMerge>
    </filter>
  </defs>
  
  <!-- Background -->
  <rect width="800" height="600" fill="#1E1B4B"/>
  
  <!-- Neural network architecture -->
  <!-- Input layer -->
  <circle cx="100" cy="120" r="8" fill="url(#aiGrad1)" opacity="0.9"/>
  <circle cx="100" cy="150" r="8" fill="url(#aiGrad1)" opacity="0.9"/>
  <circle cx="100" cy="180" r="8" fill="url(#aiGrad1)" opacity="0.9"/>
  <circle cx="100" cy="210" r="8" fill="url(#aiGrad1)" opacity="0.9"/>
  
  <!-- Hidden layer 1 -->
  <circle cx="250" cy="100" r="8" fill="url(#aiGrad1)" opacity="0.8"/>
  <circle cx="250" cy="130" r="8" fill="url(#aiGrad1)" opacity="0.8"/>
  <circle cx="250" cy="160" r="8" fill="url(#aiGrad1)" opacity="0.8"/>
  <circle cx="250" cy="190" r="8" fill="url(#aiGrad1)" opacity="0.8"/>
  <circle cx="250" cy="220" r="8" fill="url(#aiGrad1)" opacity="0.8"/>
  <circle cx="250" cy="250" r="8" fill="url(#aiGrad1)" opacity="0.8"/>
  
  <!-- Hidden layer 2 -->
  <circle cx="400" cy="110" r="8" fill="url(#aiGrad1)" opacity="0.7"/>
  <circle cx="400" cy="140" r="8" fill="url(#aiGrad1)" opacity="0.7"/>
  <circle cx="400" cy="170" r="8" fill="url(#aiGrad1)" opacity="0.7"/>
  <circle cx="400" cy="200" r="8" fill="url(#aiGrad1)" opacity="0.7"/>
  <circle cx="400" cy="230" r="8" fill="url(#aiGrad1)" opacity="0.7"/>
  
  <!-- Output layer -->
  <circle cx="550" cy="130" r="8" fill="url(#aiGrad1)" opacity="0.6"/>
  <circle cx="550" cy="170" r="8" fill="url(#aiGrad1)" opacity="0.6"/>
  <circle cx="550" cy="210" r="8" fill="url(#aiGrad1)" opacity="0.6"/>
  
  <!-- Neural connections -->
  <path d="M 108 120 L 242 100" stroke="#8B5CF6" stroke-width="1" fill="none" opacity="0.3"/>
  <path d="M 108 120 L 242 130" stroke="#8B5CF6" stroke-width="1" fill="none" opacity="0.3"/>
  <path d="M 108 120 L 242 160" stroke="#8B5CF6" stroke-width="1" fill="none" opacity="0.3"/>
  <path d="M 108 150 L 242 100" stroke="#8B5CF6" stroke-width="1" fill="none" opacity="0.3"/>
  <path d="M 108 150 L 242 130" stroke="#8B5CF6" stroke-width="1" fill="none" opacity="0.3"/>
  <path d="M 108 150 L 242 160" stroke="#8B5CF6" stroke-width="1" fill="none" opacity="0.3"/>
  <path d="M 108 180 L 242 130" stroke="#8B5CF6" stroke-width="1" fill="none" opacity="0.3"/>
  <path d="M 108 180 L 242 160" stroke="#8B5CF6" stroke-width="1" fill="none" opacity="0.3"/>
  <path d="M 108 180 L 242 190" stroke="#8B5CF6" stroke-width="1" fill="none" opacity="0.3"/>
  <path d="M 108 210 L 242 160" stroke="#8B5CF6" stroke-width="1" fill="none" opacity="0.3"/>
  <path d="M 108 210 L 242 190" stroke="#8B5CF6" stroke-width="1" fill="none" opacity="0.3"/>
  <path d="M 108 210 L 242 220" stroke="#8B5CF6" stroke-width="1" fill="none" opacity="0.3"/>
  
  <path d="M 258 100 L 392 110" stroke="#8B5CF6" stroke-width="1" fill="none" opacity="0.3"/>
  <path d="M 258 100 L 392 140" stroke="#8B5CF6" stroke-width="1" fill="none" opacity="0.3"/>
  <path d="M 258 130 L 392 110" stroke="#8B5CF6" stroke-width="1" fill="none" opacity="0.3"/>
  <path d="M 258 130 L 392 140" stroke="#8B5CF6" stroke-width="1" fill="none" opacity="0.3"/>
  <path d="M 258 130 L 392 170" stroke="#8B5CF6" stroke-width="1" fill="none" opacity="0.3"/>
  <path d="M 258 160 L 392 140" stroke="#8B5CF6" stroke-width="1" fill="none" opacity="0.3"/>
  <path d="M 258 160 L 392 170" stroke="#8B5CF6" stroke-width="1" fill="none" opacity="0.3"/>
  <path d="M 258 160 L 392 200" stroke="#8B5CF6" stroke-width="1" fill="none" opacity="0.3"/>
  <path d="M 258 190 L 392 170" stroke="#8B5CF6" stroke-width="1" fill="none" opacity="0.3"/>
  <path d="M 258 190 L 392 200" stroke="#8B5CF6" stroke-width="1" fill="none" opacity="0.3"/>
  <path d="M 258 190 L 392 230" stroke="#8B5CF6" stroke-width="1" fill="none" opacity="0.3"/>
  <path d="M 258 220 L 392 200" stroke="#8B5CF6" stroke-width="1" fill="none" opacity="0.3"/>
  <path d="M 258 220 L 392 230" stroke="#8B5CF6" stroke-width="1" fill="none" opacity="0.3"/>
  <path d="M 258 250 L 392 200" stroke="#8B5CF6" stroke-width="1" fill="none" opacity="0.3"/>
  <path d="M 258 250 L 392 230" stroke="#8B5CF6" stroke-width="1" fill="none" opacity="0.3"/>
  
  <path d="M 408 110 L 542 130" stroke="#8B5CF6" stroke-width="1" fill="none" opacity="0.3"/>
  <path d="M 408 110 L 542 170" stroke="#8B5CF6" stroke-width="1" fill="none" opacity="0.3"/>
  <path d="M 408 140 L 542 130" stroke="#8B5CF6" stroke-width="1" fill="none" opacity="0.3"/>
  <path d="M 408 140 L 542 170" stroke="#8B5CF6" stroke-width="1" fill="none" opacity="0.3"/>
  <path d="M 408 140 L 542 210" stroke="#8B5CF6" stroke-width="1" fill="none" opacity="0.3"/>
  <path d="M 408 170 L 542 130" stroke="#8B5CF6" stroke-width="1" fill="none" opacity="0.3"/>
  <path d="M 408 170 L 542 170" stroke="#8B5CF6" stroke-width="1" fill="none" opacity="0.3"/>
  <path d="M 408 170 L 542 210" stroke="#8B5CF6" stroke-width="1" fill="none" opacity="0.3"/>
  <path d="M 408 200 L 542 170" stroke="#8B5CF6" stroke-width="1" fill="none" opacity="0.3"/>
  <path d="M 408 200 L 542 210" stroke="#8B5CF6" stroke-width="1" fill="none" opacity="0.3"/>
  <path d="M 408 230 L 542 170" stroke="#8B5CF6" stroke-width="1" fill="none" opacity="0.3"/>
  <path d="M 408 230 L 542 210" stroke="#8B5CF6" stroke-width="1" fill="none" opacity="0.3"/>
  
  <!-- Data visualization dashboard -->
  <rect x="50" y="320" width="700" height="200" rx="8" fill="#1E1B4B" stroke="#8B5CF6" stroke-width="2"/>
  <text x="400" y="345" fill="#8B5CF6" font-size="14" text-anchor="middle">Business Intelligence Dashboard</text>
  
  <!-- Charts -->
  <!-- Bar chart -->
  <rect x="80" y="360" width="20" height="40" fill="url(#aiGrad1)" opacity="0.8"/>
  <rect x="110" y="370" width="20" height="30" fill="url(#aiGrad1)" opacity="0.8"/>
  <rect x="140" y="350" width="20" height="50" fill="url(#aiGrad1)" opacity="0.8"/>
  <rect x="170" y="365" width="20" height="35" fill="url(#aiGrad1)" opacity="0.8"/>
  <rect x="200" y="340" width="20" height="60" fill="url(#aiGrad1)" opacity="0.8"/>
  <rect x="230" y="375" width="20" height="25" fill="url(#aiGrad1)" opacity="0.8"/>
  <rect x="260" y="355" width="20" height="45" fill="url(#aiGrad1)" opacity="0.8"/>
  <rect x="290" y="360" width="20" height="40" fill="url(#aiGrad1)" opacity="0.8"/>
  
  <!-- Line chart -->
  <path d="M 350 400 L 380 380 L 410 390 L 440 370 L 470 385 L 500 375 L 530 395 L 560 365" 
        stroke="#A78BFA" stroke-width="3" fill="none"/>
  <circle cx="350" cy="400" r="3" fill="#A78BFA"/>
  <circle cx="380" cy="380" r="3" fill="#A78BFA"/>
  <circle cx="410" cy="390" r="3" fill="#A78BFA"/>
  <circle cx="440" cy="370" r="3" fill="#A78BFA"/>
  <circle cx="470" cy="385" r="3" fill="#A78BFA"/>
  <circle cx="500" cy="375" r="3" fill="#A78BFA"/>
  <circle cx="530" cy="395" r="3" fill="#A78BFA"/>
  <circle cx="560" cy="365" r="3" fill="#A78BFA"/>
  
  <!-- Pie chart -->
  <circle cx="650" cy="400" r="40" fill="none" stroke="#8B5CF6" stroke-width="20"/>
  <path d="M 650 360 A 40 40 0 0 1 690 400" fill="#A78BFA"/>
  <path d="M 690 400 A 40 40 0 0 1 650 440" fill="#C4B5FD"/>
  <path d="M 650 440 A 40 40 0 0 1 610 400" fill="#DDD6FE"/>
  <path d="M 610 400 A 40 40 0 0 1 650 360" fill="#8B5CF6"/>
  
  <!-- Data processing pipeline -->
  <rect x="80" y="480" width="600" height="80" rx="8" fill="#1E1B4B" stroke="#A78BFA" stroke-width="2"/>
  <text x="380" y="500" fill="#A78BFA" font-size="12" text-anchor="middle">Data Processing Pipeline</text>
  
  <!-- Pipeline stages -->
  <rect x="100" y="510" width="80" height="40" fill="#8B5CF6" opacity="0.2" rx="4"/>
  <text x="140" y="530" fill="#8B5CF6" font-size="10" text-anchor="middle">Extract</text>
  <text x="140" y="540" fill="#8B5CF6" font-size="8" text-anchor="middle">ETL</text>
  
  <path d="M 180 530 L 200 530" stroke="#8B5CF6" stroke-width="2"/>
  <polygon points="200,525 200,535 205,530" fill="#8B5CF6"/>
  
  <rect x="210" y="510" width="80" height="40" fill="#8B5CF6" opacity="0.2" rx="4"/>
  <text x="250" y="530" fill="#8B5CF6" font-size="10" text-anchor="middle">Transform</text>
  <text x="250" y="540" fill="#8B5CF6" font-size="8" text-anchor="middle">Clean</text>
  
  <path d="M 290 530 L 310 530" stroke="#8B5CF6" stroke-width="2"/>
  <polygon points="310,525 310,535 315,530" fill="#8B5CF6"/>
  
  <rect x="320" y="510" width="80" height="40" fill="#8B5CF6" opacity="0.2" rx="4"/>
  <text x="360" y="530" fill="#8B5CF6" font-size="10" text-anchor="middle">Load</text>
  <text x="360" y="540" fill="#8B5CF6" font-size="8" text-anchor="middle">Warehouse</text>
  
  <path d="M 400 530 L 420 530" stroke="#8B5CF6" stroke-width="2"/>
  <polygon points="420,525 420,535 425,530" fill="#8B5CF6"/>
  
  <rect x="430" y="510" width="80" height="40" fill="#8B5CF6" opacity="0.2" rx="4"/>
  <text x="470" y="530" fill="#8B5CF6" font-size="10" text-anchor="middle">Analyze</text>
  <text x="470" y="540" fill="#8B5CF6" font-size="8" text-anchor="middle">ML</text>
  
  <path d="M 510 530 L 530 530" stroke="#8B5CF6" stroke-width="2"/>
  <polygon points="530,525 530,535 535,530" fill="#8B5CF6"/>
  
  <rect x="540" y="510" width="80" height="40" fill="#8B5CF6" opacity="0.2" rx="4"/>
  <text x="580" y="530" fill="#8B5CF6" font-size="10" text-anchor="middle">Visualize</text>
  <text x="580" y="540" fill="#8B5CF6" font-size="8" text-anchor="middle">BI</text>
  
  <!-- Floating elements -->
  <circle cx="700" cy="120" r="15" fill="url(#aiGrad2)" filter="url(#aiGlow)"/>
  <text x="700" y="125" fill="white" font-size="10" text-anchor="middle" font-weight="bold">🤖</text>
  
  <circle cx="720" cy="200" r="12" fill="url(#aiGrad2)" filter="url(#aiGlow)"/>
  <text x="720" y="205" fill="white" font-size="8" text-anchor="middle" font-weight="bold">📊</text>
  
  <circle cx="680" cy="280" r="10" fill="url(#aiGrad1)" filter="url(#aiGlow)"/>
  <text x="680" y="285" fill="white" font-size="8" text-anchor="middle" font-weight="bold">🧠</text>
  
  <!-- Title -->
  <text x="400" y="590" text-anchor="middle" fill="#E2E8F0" font-size="24" font-weight="bold">AI, Data Science &amp; Business Intelligence</text>
  <text x="400" y="610" text-anchor="middle" fill="#94A3B8" font-size="14">Machine Learning • Neural Networks • Analytics • ETL • BI Dashboards</text>
</svg>