<svg width="800" height="600" viewBox="0 0 800 600" xmlns="http://www.w3.org/2000/svg">
  <defs>
    <linearGradient id="cloudGrad1" x1="0%" y1="0%" x2="100%" y2="100%">
      <stop offset="0%" style="stop-color:#10B981;stop-opacity:1" />
      <stop offset="50%" style="stop-color:#059669;stop-opacity:1" />
      <stop offset="100%" style="stop-color:#047857;stop-opacity:1" />
    </linearGradient>
    <linearGradient id="cloudGrad2" x1="0%" y1="0%" x2="100%" y2="0%">
      <stop offset="0%" style="stop-color:#34D399;stop-opacity:0.8" />
      <stop offset="100%" style="stop-color:#10B981;stop-opacity:0.8" />
    </linearGradient>
    <filter id="cloudGlow">
      <feGaussianBlur stdDeviation="2" result="coloredBlur"/>
      <feMerge> 
        <feMergeNode in="coloredBlur"/>
        <feMergeNode in="SourceGraphic"/>
      </feMerge>
    </filter>
  </defs>
  
  <!-- Background -->
  <rect width="800" height="600" fill="#064E3B"/>
  
  <!-- Cloud infrastructure -->
  <ellipse cx="200" cy="120" rx="100" ry="50" fill="url(#cloudGrad1)" opacity="0.9" filter="url(#cloudGlow)"/>
  <ellipse cx="300" cy="100" rx="80" ry="40" fill="url(#cloudGrad1)" opacity="0.8" filter="url(#cloudGlow)"/>
  <ellipse cx="400" cy="130" rx="90" ry="45" fill="url(#cloudGrad1)" opacity="0.7" filter="url(#cloudGlow)"/>
  <ellipse cx="500" cy="110" rx="70" ry="35" fill="url(#cloudGrad1)" opacity="0.6" filter="url(#cloudGlow)"/>
  <ellipse cx="600" cy="140" rx="85" ry="42" fill="url(#cloudGrad1)" opacity="0.8" filter="url(#cloudGlow)"/>
  
  <!-- Data centers -->
  <rect x="80" y="200" width="120" height="150" rx="8" fill="#1F2937" stroke="#10B981" stroke-width="2"/>
  <text x="140" y="220" fill="#10B981" font-size="12" text-anchor="middle">Data Center 1</text>
  
  <!-- Server racks -->
  <rect x="90" y="230" width="100" height="8" fill="#10B981" opacity="0.3"/>
  <rect x="90" y="245" width="100" height="8" fill="#10B981" opacity="0.3"/>
  <rect x="90" y="260" width="100" height="8" fill="#10B981" opacity="0.3"/>
  <rect x="90" y="275" width="100" height="8" fill="#10B981" opacity="0.3"/>
  <rect x="90" y="290" width="100" height="8" fill="#10B981" opacity="0.3"/>
  <rect x="90" y="305" width="100" height="8" fill="#10B981" opacity="0.3"/>
  <rect x="90" y="320" width="100" height="8" fill="#10B981" opacity="0.3"/>
  <rect x="90" y="335" width="100" height="8" fill="#10B981" opacity="0.3"/>
  
  <rect x="350" y="200" width="120" height="150" rx="8" fill="#1F2937" stroke="#10B981" stroke-width="2"/>
  <text x="410" y="220" fill="#10B981" font-size="12" text-anchor="middle">Data Center 2</text>
  
  <rect x="360" y="230" width="100" height="8" fill="#10B981" opacity="0.3"/>
  <rect x="360" y="245" width="100" height="8" fill="#10B981" opacity="0.3"/>
  <rect x="360" y="260" width="100" height="8" fill="#10B981" opacity="0.3"/>
  <rect x="360" y="275" width="100" height="8" fill="#10B981" opacity="0.3"/>
  <rect x="360" y="290" width="100" height="8" fill="#10B981" opacity="0.3"/>
  <rect x="360" y="305" width="100" height="8" fill="#10B981" opacity="0.3"/>
  <rect x="360" y="320" width="100" height="8" fill="#10B981" opacity="0.3"/>
  <rect x="360" y="335" width="100" height="8" fill="#10B981" opacity="0.3"/>
  
  <rect x="620" y="200" width="120" height="150" rx="8" fill="#1F2937" stroke="#10B981" stroke-width="2"/>
  <text x="680" y="220" fill="#10B981" font-size="12" text-anchor="middle">Data Center 3</text>
  
  <rect x="630" y="230" width="100" height="8" fill="#10B981" opacity="0.3"/>
  <rect x="630" y="245" width="100" height="8" fill="#10B981" opacity="0.3"/>
  <rect x="630" y="260" width="100" height="8" fill="#10B981" opacity="0.3"/>
  <rect x="630" y="275" width="100" height="8" fill="#10B981" opacity="0.3"/>
  <rect x="630" y="290" width="100" height="8" fill="#10B981" opacity="0.3"/>
  <rect x="630" y="305" width="100" height="8" fill="#10B981" opacity="0.3"/>
  <rect x="630" y="320" width="100" height="8" fill="#10B981" opacity="0.3"/>
  <rect x="630" y="335" width="100" height="8" fill="#10B981" opacity="0.3"/>
  
  <!-- Network connections -->
  <path d="M 200 275 L 350 275" stroke="#10B981" stroke-width="3" fill="none" opacity="0.6"/>
  <path d="M 470 275 L 620 275" stroke="#10B981" stroke-width="3" fill="none" opacity="0.6"/>
  
  <!-- Load balancer -->
  <rect x="300" y="380" width="200" height="80" rx="8" fill="#1F2937" stroke="#F59E0B" stroke-width="2"/>
  <text x="400" y="400" fill="#F59E0B" font-size="12" text-anchor="middle">Load Balancer</text>
  
  <circle cx="320" cy="420" r="8" fill="#F59E0B"/>
  <circle cx="340" cy="420" r="8" fill="#F59E0B"/>
  <circle cx="360" cy="420" r="8" fill="#F59E0B"/>
  <circle cx="380" cy="420" r="8" fill="#F59E0B"/>
  <circle cx="400" cy="420" r="8" fill="#F59E0B"/>
  <circle cx="420" cy="420" r="8" fill="#F59E0B"/>
  <circle cx="440" cy="420" r="8" fill="#F59E0B"/>
  <circle cx="460" cy="420" r="8" fill="#F59E0B"/>
  <circle cx="480" cy="420" r="8" fill="#F59E0B"/>
  
  <!-- CI/CD Pipeline -->
  <rect x="50" y="480" width="700" height="80" rx="8" fill="#1F2937" stroke="#8B5CF6" stroke-width="2"/>
  <text x="400" y="500" fill="#8B5CF6" font-size="12" text-anchor="middle">CI/CD Pipeline</text>
  
  <!-- Pipeline stages -->
  <rect x="70" y="510" width="80" height="40" fill="#8B5CF6" opacity="0.2" rx="4"/>
  <text x="110" y="530" fill="#8B5CF6" font-size="10" text-anchor="middle">Build</text>
  <text x="110" y="540" fill="#8B5CF6" font-size="8" text-anchor="middle">Docker</text>
  
  <path d="M 150 530 L 170 530" stroke="#8B5CF6" stroke-width="2"/>
  <polygon points="170,525 170,535 175,530" fill="#8B5CF6"/>
  
  <rect x="180" y="510" width="80" height="40" fill="#8B5CF6" opacity="0.2" rx="4"/>
  <text x="220" y="530" fill="#8B5CF6" font-size="10" text-anchor="middle">Test</text>
  <text x="220" y="540" fill="#8B5CF6" font-size="8" text-anchor="middle">Jest</text>
  
  <path d="M 260 530 L 280 530" stroke="#8B5CF6" stroke-width="2"/>
  <polygon points="280,525 280,535 285,530" fill="#8B5CF6"/>
  
  <rect x="290" y="510" width="80" height="40" fill="#8B5CF6" opacity="0.2" rx="4"/>
  <text x="330" y="530" fill="#8B5CF6" font-size="10" text-anchor="middle">Security</text>
  <text x="330" y="540" fill="#8B5CF6" font-size="8" text-anchor="middle">Scan</text>
  
  <path d="M 370 530 L 390 530" stroke="#8B5CF6" stroke-width="2"/>
  <polygon points="390,525 390,535 395,530" fill="#8B5CF6"/>
  
  <rect x="400" y="510" width="80" height="40" fill="#8B5CF6" opacity="0.2" rx="4"/>
  <text x="440" y="530" fill="#8B5CF6" font-size="10" text-anchor="middle">Deploy</text>
  <text x="440" y="540" fill="#8B5CF6" font-size="8" text-anchor="middle">K8s</text>
  
  <path d="M 480 530 L 500 530" stroke="#8B5CF6" stroke-width="2"/>
  <polygon points="500,525 500,535 505,530" fill="#8B5CF6"/>
  
  <rect x="510" y="510" width="80" height="40" fill="#8B5CF6" opacity="0.2" rx="4"/>
  <text x="550" y="530" fill="#8B5CF6" font-size="10" text-anchor="middle">Monitor</text>
  <text x="550" y="540" fill="#8B5CF6" font-size="8" text-anchor="middle">Prometheus</text>
  
  <path d="M 590 530 L 610 530" stroke="#8B5CF6" stroke-width="2"/>
  <polygon points="610,525 610,535 615,530" fill="#8B5CF6"/>
  
  <rect x="620" y="510" width="80" height="40" fill="#8B5CF6" opacity="0.2" rx="4"/>
  <text x="660" y="530" fill="#8B5CF6" font-size="10" text-anchor="middle">Alert</text>
  <text x="660" y="540" fill="#8B5CF6" font-size="8" text-anchor="middle">Grafana</text>
  
  <!-- Floating elements -->
  <circle cx="150" cy="180" r="12" fill="url(#cloudGrad2)" filter="url(#cloudGlow)"/>
  <text x="150" y="185" fill="white" font-size="10" text-anchor="middle" font-weight="bold">☁️</text>
  
  <circle cx="650" cy="160" r="10" fill="url(#cloudGrad2)" filter="url(#cloudGlow)"/>
  <text x="650" y="165" fill="white" font-size="8" text-anchor="middle" font-weight="bold">⚙️</text>
  
  <circle cx="700" cy="200" r="8" fill="url(#cloudGrad1)" filter="url(#cloudGlow)"/>
  <text x="700" y="205" fill="white" font-size="8" text-anchor="middle" font-weight="bold">🔗</text>
  
  <!-- Title -->
  <text x="400" y="590" text-anchor="middle" fill="#E2E8F0" font-size="24" font-weight="bold">Cloud, DevOps &amp; Platform Engineering</text>
  <text x="400" y="610" text-anchor="middle" fill="#94A3B8" font-size="14">Infrastructure • CI/CD • Kubernetes • Monitoring • Security</text>
</svg>