<svg width="800" height="600" viewBox="0 0 800 600" xmlns="http://www.w3.org/2000/svg">
  <defs>
    <linearGradient id="codeGrad1" x1="0%" y1="0%" x2="100%" y2="100%">
      <stop offset="0%" style="stop-color:#3B82F6;stop-opacity:1" />
      <stop offset="50%" style="stop-color:#1E40AF;stop-opacity:1" />
      <stop offset="100%" style="stop-color:#1E3A8A;stop-opacity:1" />
    </linearGradient>
    <linearGradient id="codeGrad2" x1="0%" y1="0%" x2="100%" y2="0%">
      <stop offset="0%" style="stop-color:#60A5FA;stop-opacity:0.8" />
      <stop offset="100%" style="stop-color:#3B82F6;stop-opacity:0.8" />
    </linearGradient>
    <filter id="glow">
      <feGaussianBlur stdDeviation="3" result="coloredBlur"/>
      <feMerge> 
        <feMergeNode in="coloredBlur"/>
        <feMergeNode in="SourceGraphic"/>
      </feMerge>
    </filter>
  </defs>
  
  <!-- Background -->
  <rect width="800" height="600" fill="#0F172A"/>
  
  <!-- Grid pattern -->
  <defs>
    <pattern id="grid" width="20" height="20" patternUnits="userSpaceOnUse">
      <path d="M 20 0 L 0 0 0 20" fill="none" stroke="#1E293B" stroke-width="0.5"/>
    </pattern>
  </defs>
  <rect width="800" height="600" fill="url(#grid)"/>
  
  <!-- Main code editor window -->
  <rect x="50" y="80" width="300" height="200" rx="8" fill="#1E293B" stroke="#3B82F6" stroke-width="2"/>
  <rect x="60" y="90" width="280" height="25" fill="#334155"/>
  <circle cx="75" cy="102" r="4" fill="#EF4444"/>
  <circle cx="90" cy="102" r="4" fill="#F59E0B"/>
  <circle cx="105" cy="102" r="4" fill="#10B981"/>
  <text x="320" y="105" fill="#94A3B8" font-size="12">main.js</text>
  
  <!-- Code lines -->
  <text x="70" y="130" fill="#E2E8F0" font-size="11" font-family="monospace">function createApp() {</text>
  <text x="85" y="145" fill="#E2E8F0" font-size="11" font-family="monospace">const app = new Vue({</text>
  <text x="100" y="160" fill="#60A5FA" font-size="11" font-family="monospace">el: '#app',</text>
  <text x="100" y="175" fill="#60A5FA" font-size="11" font-family="monospace">data: {</text>
  <text x="115" y="190" fill="#F59E0B" font-size="11" font-family="monospace">message: 'Hello World'</text>
  <text x="100" y="205" fill="#E2E8F0" font-size="11" font-family="monospace">}</text>
  <text x="85" y="220" fill="#E2E8F0" font-size="11" font-family="monospace">});</text>
  <text x="70" y="235" fill="#E2E8F0" font-size="11" font-family="monospace">}</text>
  
  <!-- Database structure -->
  <rect x="450" y="80" width="280" height="200" rx="8" fill="#1E293B" stroke="#10B981" stroke-width="2"/>
  <text x="580" y="105" fill="#94A3B8" font-size="12">Database Schema</text>
  
  <!-- Database tables -->
  <rect x="470" y="120" width="80" height="60" fill="#10B981" opacity="0.2" stroke="#10B981"/>
  <text x="510" y="140" fill="#10B981" font-size="10" text-anchor="middle">Users</text>
  <text x="475" y="155" fill="#E2E8F0" font-size="8">id (PK)</text>
  <text x="475" y="165" fill="#E2E8F0" font-size="8">name</text>
  <text x="475" y="175" fill="#E2E8F0" font-size="8">email</text>
  
  <rect x="570" y="120" width="80" height="60" fill="#10B981" opacity="0.2" stroke="#10B981"/>
  <text x="610" y="140" fill="#10B981" font-size="10" text-anchor="middle">Products</text>
  <text x="575" y="155" fill="#E2E8F0" font-size="8">id (PK)</text>
  <text x="575" y="165" fill="#E2E8F0" font-size="8">title</text>
  <text x="575" y="175" fill="#E2E8F0" font-size="8">price</text>
  
  <rect x="470" y="200" width="80" height="60" fill="#10B981" opacity="0.2" stroke="#10B981"/>
  <text x="510" y="220" fill="#10B981" font-size="10" text-anchor="middle">Orders</text>
  <text x="475" y="235" fill="#E2E8F0" font-size="8">id (PK)</text>
  <text x="475" y="245" fill="#E2E8F0" font-size="8">user_id (FK)</text>
  <text x="475" y="255" fill="#E2E8F0" font-size="8">total</text>
  
  <!-- API endpoints -->
  <rect x="50" y="320" width="680" height="120" rx="8" fill="#1E293B" stroke="#8B5CF6" stroke-width="2"/>
  <text x="390" y="345" fill="#94A3B8" font-size="12" text-anchor="middle">REST API Endpoints</text>
  
  <rect x="70" y="360" width="120" height="30" fill="#8B5CF6" opacity="0.2" rx="4"/>
  <text x="130" y="380" fill="#8B5CF6" font-size="10" text-anchor="middle">GET /api/users</text>
  
  <rect x="210" y="360" width="120" height="30" fill="#8B5CF6" opacity="0.2" rx="4"/>
  <text x="270" y="380" fill="#8B5CF6" font-size="10" text-anchor="middle">POST /api/users</text>
  
  <rect x="350" y="360" width="120" height="30" fill="#8B5CF6" opacity="0.2" rx="4"/>
  <text x="410" y="380" fill="#8B5CF6" font-size="10" text-anchor="middle">PUT /api/users/:id</text>
  
  <rect x="490" y="360" width="120" height="30" fill="#8B5CF6" opacity="0.2" rx="4"/>
  <text x="550" y="380" fill="#8B5CF6" font-size="10" text-anchor="middle">DELETE /api/users/:id</text>
  
  <rect x="630" y="360" width="120" height="30" fill="#8B5CF6" opacity="0.2" rx="4"/>
  <text x="690" y="380" fill="#8B5CF6" font-size="10" text-anchor="middle">GET /api/products</text>
  
  <!-- Mobile app preview -->
  <rect x="70" y="410" width="80" height="120" rx="8" fill="#1E293B" stroke="#F59E0B" stroke-width="2"/>
  <rect x="75" y="415" width="70" height="15" fill="#F59E0B" opacity="0.3" rx="2"/>
  <rect x="80" y="440" width="60" height="8" fill="#F59E0B" opacity="0.2" rx="2"/>
  <rect x="80" y="455" width="60" height="8" fill="#F59E0B" opacity="0.2" rx="2"/>
  <rect x="80" y="470" width="60" height="8" fill="#F59E0B" opacity="0.2" rx="2"/>
  <rect x="80" y="485" width="60" height="8" fill="#F59E0B" opacity="0.2" rx="2"/>
  <rect x="80" y="500" width="60" height="8" fill="#F59E0B" opacity="0.2" rx="2"/>
  
  <!-- Web app preview -->
  <rect x="170" y="410" width="120" height="80" rx="8" fill="#1E293B" stroke="#F59E0B" stroke-width="2"/>
  <rect x="175" y="415" width="110" height="15" fill="#F59E0B" opacity="0.3" rx="2"/>
  <rect x="180" y="440" width="100" height="8" fill="#F59E0B" opacity="0.2" rx="2"/>
  <rect x="180" y="455" width="100" height="8" fill="#F59E0B" opacity="0.2" rx="2"/>
  <rect x="180" y="470" width="100" height="8" fill="#F59E0B" opacity="0.2" rx="2"/>
  
  <!-- Deployment pipeline -->
  <rect x="310" y="410" width="200" height="80" rx="8" fill="#1E293B" stroke="#EF4444" stroke-width="2"/>
  <text x="410" y="430" fill="#94A3B8" font-size="10" text-anchor="middle">CI/CD Pipeline</text>
  
  <circle cx="330" cy="450" r="8" fill="#EF4444"/>
  <text x="330" y="455" fill="white" font-size="8" text-anchor="middle">1</text>
  
  <path d="M 338 450 L 362 450" stroke="#EF4444" stroke-width="2"/>
  <circle cx="370" cy="450" r="8" fill="#F59E0B"/>
  <text x="370" y="455" fill="white" font-size="8" text-anchor="middle">2</text>
  
  <path d="M 378 450 L 402 450" stroke="#F59E0B" stroke-width="2"/>
  <circle cx="410" cy="450" r="8" fill="#10B981"/>
  <text x="410" y="455" fill="white" font-size="8" text-anchor="middle">3</text>
  
  <path d="M 418 450 L 442 450" stroke="#10B981" stroke-width="2"/>
  <circle cx="450" cy="450" r="8" fill="#3B82F6"/>
  <text x="450" y="455" fill="white" font-size="8" text-anchor="middle">4</text>
  
  <text x="330" y="470" fill="#94A3B8" font-size="8" text-anchor="middle">Build</text>
  <text x="370" y="470" fill="#94A3B8" font-size="8" text-anchor="middle">Test</text>
  <text x="410" y="470" fill="#94A3B8" font-size="8" text-anchor="middle">Deploy</text>
  <text x="450" y="470" fill="#94A3B8" font-size="8" text-anchor="middle">Live</text>
  
  <!-- Floating elements -->
  <circle cx="650" cy="450" r="15" fill="url(#codeGrad1)" filter="url(#glow)"/>
  <text x="650" y="455" fill="white" font-size="10" text-anchor="middle" font-weight="bold">⚡</text>
  
  <circle cx="680" cy="480" r="12" fill="url(#codeGrad2)" filter="url(#glow)"/>
  <text x="680" y="485" fill="white" font-size="8" text-anchor="middle" font-weight="bold">🔧</text>
  
  <circle cx="620" cy="510" r="10" fill="url(#codeGrad1)" filter="url(#glow)"/>
  <text x="620" y="515" fill="white" font-size="8" text-anchor="middle" font-weight="bold">🚀</text>
  
  <!-- Title -->
  <text x="400" y="570" text-anchor="middle" fill="#E2E8F0" font-size="24" font-weight="bold">Software Engineering &amp; Product Delivery</text>
  <text x="400" y="590" text-anchor="middle" fill="#94A3B8" font-size="14">Full-Stack Development • Mobile Apps • APIs • Databases • CI/CD</text>
</svg>