<?xml version="1.0" encoding="UTF-8"?>
<svg id="Layer_2" data-name="Layer 2" xmlns="http://www.w3.org/2000/svg" viewBox="0 0 405.94 195.82">
  <defs>
    <style>
      .cls-1 {
        fill: #fff;
        stroke-width: 0px;
      }
    </style>
  </defs>
  <g id="Layer_2-2" data-name="Layer 2">
    <g id="Layer_1-2" data-name="Layer 1-2">
      <g>
        <polygon class="cls-1" points="234.22 0 219.69 25.17 212.88 36.97 142.81 36.97 197.09 130.99 183.46 130.99 129.19 36.97 122.37 25.17 206.07 25.17 220.6 0 234.22 0"/>
        <path class="cls-1" d="M244.8,0l-6.82,11.8-30.16,52.24-3.93-6.82-6.82-11.8h-38.53l6.81,11.8,35.78,61.96,6.81,11.81,6.81-11.8,62-107.39L283.56,0s-38.76,0-38.76,0ZM207.94,107.39l-28.96-50.17h11.28l10.76,18.62,6.8,11.78,6.81-11.79L251.6,11.8h11.52l-55.18,95.59Z"/>
      </g>
      <g>
        <path class="cls-1" d="M30.94,142.92h6.12l-15.18,25.97h-6.7L0,142.92h6.12l12.43,21.26s12.39-21.26,12.39-21.26Z"/>
        <path class="cls-1" d="M41.5,142.96h5.2v25.97h-5.2v-25.97Z"/>
        <path class="cls-1" d="M76.62,154.78c1.49.53,2.66,1.27,3.51,2.23,1.01,1.16,1.52,2.55,1.52,4.18,0,.85-.13,1.63-.36,2.34-.24.67-.62,1.32-1.14,1.97-.87,1.03-2.07,1.83-3.59,2.39-2.3.89-5.51,1.32-9.62,1.3-2.79,0-5.36-.36-7.72-1.07-2.48-.71-4.36-1.74-5.65-3.08-.38-.38-.67-.74-.87-1.1l4.29-2.68c.05.09.13.18.24.27.67.67,1.81,1.25,3.42,1.76,1.9.54,3.98.81,6.25.81,3.46,0,6.05-.33,7.77-.96.74-.27,1.27-.6,1.58-.98.22-.27.33-.62.34-1.03,0-.33-.09-.62-.27-.85-.31-.31-.78-.58-1.43-.81-1.23-.42-3.82-.83-7.79-1.25l-.42-.04c-4.4-.45-7.43-.98-9.06-1.58-1.47-.49-2.64-1.21-3.53-2.17-1.01-1.16-1.52-2.57-1.52-4.22,0-.8.13-1.58.4-2.34.27-.74.65-1.39,1.14-1.97.81-1,2.01-1.79,3.59-2.41,2.23-.87,5.43-1.3,9.62-1.3,2.88,0,5.43.34,7.68,1.05,2.44.71,4.33,1.74,5.63,3.08.24.24.52.6.87,1.09l-4.33,2.68-.2-.27c-.63-.69-1.77-1.27-3.42-1.74-1.87-.56-3.95-.85-6.25-.85-3.5,0-6.09.33-7.79.96-.76.31-1.29.63-1.56.98-.22.27-.33.62-.34,1.03,0,.45.09.74.27.87.2.24.67.51,1.41.81,1.23.42,3.84.83,7.84,1.25l.36.04c4.44.47,7.46,1,9.07,1.56l.04.05h.02Z"/>
        <path class="cls-1" d="M87.37,142.96h5.2v25.97h-5.2v-25.97Z"/>
        <path class="cls-1" d="M103.36,165.63c-3.26-2.57-4.89-5.83-4.89-9.8,0-1.97.45-3.82,1.34-5.54.85-1.61,2.03-3.04,3.55-4.29,3.06-2.43,6.77-3.64,11.14-3.62,4.4,0,8.11,1.2,11.12,3.59,3.26,2.57,4.89,5.87,4.89,9.87,0,1.96-.43,3.79-1.32,5.49-.82,1.63-1.99,3.06-3.53,4.31-3.06,2.43-6.77,3.64-11.14,3.62-4.44.02-8.15-1.2-11.14-3.62h-.02ZM104.32,152.64c-.53,1.01-.78,2.08-.78,3.22s.25,2.21.78,3.22c.49.96,1.21,1.85,2.17,2.64,2.1,1.68,4.76,2.52,7.99,2.52s5.85-.85,7.97-2.55c.96-.74,1.7-1.63,2.23-2.66.53-1,.78-2.06.78-3.21s-.25-2.26-.78-3.26c-.52-.96-1.25-1.85-2.19-2.64-2.16-1.68-4.82-2.52-8.01-2.52s-5.8.85-7.99,2.57c-.96.74-1.68,1.61-2.17,2.63v.04Z"/>
        <path class="cls-1" d="M168.05,168.89h-6.43l-19.98-19.04v19.04h-5.2v-25.97h5.74l20.67,19.67v-19.67h5.2v25.97h0Z"/>
        <path class="cls-1" d="M225.08,142.92h6.12l-15.18,25.97h-6.7l-15.18-25.97h6.12l12.43,21.26,12.39-21.26h0Z"/>
        <path class="cls-1" d="M235.61,168.89v-25.97h27.93v4.67h-22.73v5.2h21.17v4.94h-21.17v6.48h22.73v4.67h-27.93Z"/>
        <path class="cls-1" d="M296.25,156.72c-.76.76-1.61,1.34-2.55,1.76-.63.27-1.2.43-1.67.47l6.09,9.94h-6.16l-5.98-9.8-11.27.04v9.76h-5.2v-26.05h21.03c1.11,0,2.16.22,3.15.67.94.4,1.79.98,2.55,1.74s1.34,1.61,1.74,2.55c.42,1.03.63,2.08.63,3.15s-.22,2.12-.63,3.15c-.43,1-1.01,1.87-1.76,2.61h.03ZM290.54,154.18c.87,0,1.61-.31,2.23-.92.62-.62.92-1.38.92-2.26s-.31-1.61-.92-2.28c-.62-.62-1.36-.92-2.23-.92h-15.83v6.41l15.83-.04v.02h0Z"/>
        <path class="cls-1" d="M335,148.12h-12.77v20.85h-5.2v-20.85h-12.75v-5.2h30.72v5.2Z"/>
        <path class="cls-1" d="M341,168.89v-25.97h27.93v4.67h-22.73v5.2h21.17v4.94h-21.17v6.48h22.73v4.67h-27.93Z"/>
        <path class="cls-1" d="M405.94,142.96l-12.81,12.99,12.81,12.99h-6.83l-9.38-9.53-9.42,9.53h-6.83l12.81-12.99-12.81-12.99h6.83l9.42,9.51,9.38-9.51h6.83Z"/>
      </g>
      <g>
        <path class="cls-1" d="M143.05,188.85c.71.25,1.27.61,1.68,1.07.49.55.73,1.22.73,2,0,.41-.06.78-.17,1.12-.11.32-.29.63-.55.94-.42.49-.99.88-1.72,1.14-1.1.42-2.63.63-4.6.62-1.33,0-2.57-.17-3.69-.51-1.19-.34-2.09-.83-2.7-1.47-.18-.18-.32-.36-.42-.53l2.05-1.28s.06.09.11.13c.32.32.87.6,1.64.84.91.26,1.91.39,2.99.39,1.66,0,2.9-.16,3.72-.46.36-.13.61-.29.75-.47.1-.13.16-.29.16-.49,0-.16-.04-.29-.13-.41-.15-.15-.37-.28-.68-.39-.59-.2-1.83-.4-3.73-.6l-.2-.02c-2.11-.22-3.55-.47-4.33-.75-.7-.23-1.27-.58-1.69-1.04-.49-.55-.73-1.23-.73-2.02,0-.38.06-.75.19-1.12.13-.36.31-.67.55-.94.39-.48.96-.86,1.72-1.15,1.07-.42,2.6-.62,4.6-.62,1.38,0,2.6.16,3.67.5,1.17.34,2.07.83,2.7,1.47.11.11.25.29.42.52l-2.07,1.28-.1-.13c-.3-.33-.85-.61-1.64-.83-.89-.27-1.89-.41-2.99-.41-1.67,0-2.91.16-3.73.46-.36.15-.62.3-.75.47-.1.13-.16.29-.17.49,0,.22.04.36.13.42.1.11.32.24.68.39.59.2,1.84.4,3.75.6l.17.02c2.12.23,3.57.48,4.34.75l.02.03h.02Z"/>
        <path class="cls-1" d="M150.49,194.04c-1.56-1.23-2.34-2.79-2.34-4.69,0-.94.22-1.83.64-2.65.41-.77.97-1.46,1.7-2.05,1.46-1.16,3.24-1.74,5.33-1.73,2.11,0,3.88.57,5.32,1.72,1.56,1.23,2.34,2.81,2.34,4.72,0,.94-.21,1.81-.63,2.63-.39.78-.95,1.46-1.69,2.06-1.46,1.16-3.24,1.74-5.33,1.73-2.12,0-3.9-.57-5.33-1.73h0ZM150.95,187.83c-.25.49-.37,1-.37,1.54s.12,1.06.37,1.54c.23.46.58.88,1.04,1.27,1.01.81,2.28,1.2,3.82,1.2s2.8-.41,3.81-1.22c.46-.36.81-.78,1.07-1.27.25-.48.37-.99.37-1.53s-.12-1.08-.37-1.56c-.25-.46-.6-.88-1.05-1.27-1.03-.81-2.31-1.2-3.83-1.2s-2.77.41-3.82,1.23c-.46.36-.81.77-1.04,1.26v.02h0Z"/>
        <path class="cls-1" d="M179.59,195.6h-13.29v-12.43h2.49v10.07h10.81v2.36h-.01Z"/>
        <path class="cls-1" d="M195.65,183.16h2.44v6.21c0,.94-.22,1.83-.64,2.64s-.99,1.49-1.71,2.05c-1.46,1.17-3.24,1.76-5.32,1.76s-3.87-.58-5.35-1.74c-1.55-1.24-2.32-2.81-2.32-4.71v-6.2h2.42v6.2c0,.55.12,1.06.37,1.54.25.49.6.91,1.05,1.27,1.03.81,2.31,1.2,3.83,1.2s2.79-.4,3.82-1.2c.48-.38.82-.81,1.05-1.28.25-.46.37-.97.37-1.53v-6.22h0Z"/>
        <path class="cls-1" d="M216.17,185.66h-6.11v9.98h-2.49v-9.98h-6.1v-2.49h14.7v2.49h0Z"/>
        <path class="cls-1" d="M219.06,183.19h2.49v12.43h-2.49v-12.43Z"/>
        <path class="cls-1" d="M226.71,194.04c-1.56-1.23-2.34-2.79-2.34-4.69,0-.94.22-1.83.64-2.65.41-.77.97-1.46,1.7-2.05,1.46-1.16,3.24-1.74,5.33-1.73,2.11,0,3.88.57,5.32,1.72,1.56,1.23,2.34,2.81,2.34,4.72,0,.94-.21,1.81-.63,2.63-.39.78-.95,1.46-1.69,2.06-1.46,1.16-3.24,1.74-5.33,1.73-2.12,0-3.9-.57-5.33-1.73h0ZM227.17,187.83c-.25.49-.37,1-.37,1.54s.12,1.06.37,1.54c.23.46.58.88,1.04,1.27,1.01.81,2.28,1.2,3.82,1.2s2.8-.41,3.81-1.22c.46-.36.82-.78,1.07-1.27.25-.48.37-.99.37-1.53s-.12-1.08-.37-1.56c-.25-.46-.6-.88-1.05-1.27-1.03-.81-2.31-1.2-3.83-1.2s-2.77.41-3.82,1.23c-.46.36-.81.77-1.04,1.26v.02h0Z"/>
        <path class="cls-1" d="M257.66,195.6h-3.08l-9.56-9.11v9.11h-2.49v-12.43h2.75l9.89,9.41v-9.41h2.49v12.43Z"/>
        <path class="cls-1" d="M271.98,188.85c.71.25,1.27.61,1.68,1.07.49.55.73,1.22.73,2,0,.41-.06.78-.17,1.12-.11.32-.29.63-.55.94-.42.49-.99.88-1.72,1.14-1.1.42-2.63.63-4.6.62-1.33,0-2.57-.17-3.69-.51-1.19-.34-2.09-.83-2.7-1.47-.18-.18-.32-.36-.42-.53l2.05-1.28s.06.09.11.13c.32.32.87.6,1.64.84.91.26,1.91.39,2.99.39,1.66,0,2.89-.16,3.72-.46.36-.13.61-.29.75-.47.1-.13.16-.29.16-.49,0-.16-.04-.29-.13-.41-.15-.15-.37-.28-.68-.39-.59-.2-1.83-.4-3.73-.6l-.2-.02c-2.11-.22-3.55-.47-4.33-.75-.7-.23-1.27-.58-1.69-1.04-.48-.55-.73-1.23-.73-2.02,0-.38.06-.75.19-1.12.13-.36.31-.67.55-.94.39-.48.96-.86,1.72-1.15,1.07-.42,2.6-.62,4.6-.62,1.38,0,2.6.16,3.67.5,1.17.34,2.07.83,2.7,1.47.11.11.25.29.42.52l-2.07,1.28-.09-.13c-.3-.33-.85-.61-1.64-.83-.89-.27-1.89-.41-2.99-.41-1.67,0-2.91.16-3.73.46-.36.15-.62.3-.75.47-.1.13-.16.29-.17.49,0,.22.04.36.13.42.1.11.32.24.68.39.59.2,1.84.4,3.75.6l.17.02c2.12.23,3.57.48,4.34.75l.02.03h.01Z"/>
      </g>
    </g>
  </g>
</svg>