<?xml version="1.0" encoding="UTF-8"?>
<svg id="Layer_2" data-name="Layer 2" xmlns="http://www.w3.org/2000/svg" viewBox="0 0 756.94 89.03">
  <defs>
    <style>
      .cls-1 {
        fill: #17215c;
      }

      .cls-1, .cls-2 {
        stroke-width: 0px;
      }

      .cls-2 {
        fill: #f45929;
      }
    </style>
  </defs>
  <g id="Layer_1-2" data-name="Layer 1">
    <g>
      <polygon class="cls-2" points="76.02 0 66.15 17.11 61.52 25.13 13.89 25.13 50.79 89.03 41.52 89.03 4.64 25.13 0 17.11 56.89 17.11 66.77 0 76.02 0"/>
      <path class="cls-1" d="m83.22,0l-4.64,8.02-20.5,35.51-2.67-4.64-4.64-8.02h-26.19l4.63,8.02,24.32,42.11,4.63,8.03,4.63-8.02L104.93,8.02l4.63-8.02h-26.35Zm-25.05,72.99l-19.68-34.1h7.67l7.31,12.66,4.62,8.01,4.63-8.01,25.13-43.52h7.83l-37.51,64.97Z"/>
    </g>
    <g>
      <path class="cls-1" d="m168.86,10.49h9.6l-23.8,40.73h-10.51l-23.8-40.73h9.6l19.49,33.35,19.43-33.35Z"/>
      <path class="cls-1" d="m185.43,10.55h8.15v40.73h-8.15V10.55Z"/>
      <path class="cls-1" d="m240.51,29.09c2.33.82,4.18,1.99,5.51,3.49,1.59,1.82,2.39,4.01,2.39,6.56,0,1.34-.2,2.56-.57,3.66-.37,1.05-.96,2.07-1.79,3.1-1.36,1.62-3.24,2.87-5.62,3.75-3.61,1.39-8.64,2.07-15.08,2.05-4.37,0-8.41-.57-12.1-1.68-3.89-1.11-6.84-2.73-8.86-4.83-.6-.6-1.05-1.16-1.36-1.73l6.73-4.2c.08.14.2.28.37.43,1.05,1.05,2.84,1.96,5.37,2.76,2.98.85,6.25,1.28,9.8,1.28,5.43,0,9.49-.51,12.18-1.51,1.16-.43,1.99-.94,2.47-1.53.34-.43.51-.97.54-1.62,0-.51-.14-.97-.43-1.34-.48-.48-1.22-.91-2.24-1.28-1.93-.65-5.99-1.31-12.21-1.96l-.65-.06c-6.9-.71-11.65-1.53-14.2-2.47-2.3-.77-4.15-1.9-5.54-3.41-1.59-1.82-2.39-4.03-2.39-6.62,0-1.25.2-2.47.62-3.66.43-1.16,1.02-2.19,1.79-3.1,1.28-1.56,3.15-2.81,5.62-3.78,3.49-1.36,8.52-2.05,15.08-2.05,4.52,0,8.52.54,12.04,1.65,3.83,1.11,6.79,2.73,8.83,4.83.37.37.82.94,1.36,1.7l-6.79,4.2-.31-.43c-.99-1.08-2.78-1.99-5.37-2.73-2.93-.88-6.19-1.33-9.8-1.33-5.48,0-9.54.51-12.21,1.51-1.19.48-2.02.99-2.44,1.53-.34.43-.51.97-.54,1.62,0,.71.14,1.16.43,1.36.31.37,1.05.79,2.22,1.28,1.93.65,6.02,1.31,12.3,1.96l.57.06c6.96.74,11.7,1.56,14.23,2.44l.06.08Z"/>
      <path class="cls-1" d="m257.36,10.55h8.15v40.73h-8.15V10.55Z"/>
      <path class="cls-1" d="m282.45,46.11c-5.11-4.03-7.67-9.15-7.67-15.37,0-3.1.71-5.99,2.1-8.69,1.33-2.53,3.18-4.77,5.57-6.73,4.8-3.81,10.62-5.71,17.47-5.68,6.9,0,12.72,1.87,17.44,5.62,5.11,4.03,7.67,9.2,7.67,15.48,0,3.07-.68,5.94-2.07,8.61-1.28,2.56-3.13,4.8-5.54,6.76-4.8,3.81-10.62,5.71-17.47,5.68-6.96.03-12.78-1.87-17.47-5.68h-.03Zm1.51-20.37c-.82,1.59-1.22,3.27-1.22,5.06s.4,3.46,1.22,5.06c.77,1.51,1.9,2.9,3.41,4.15,3.3,2.64,7.47,3.95,12.53,3.95s9.17-1.33,12.5-4c1.51-1.16,2.67-2.56,3.49-4.18.82-1.56,1.22-3.24,1.22-5.03s-.4-3.55-1.22-5.11c-.82-1.51-1.96-2.9-3.44-4.15-3.38-2.64-7.55-3.95-12.55-3.95s-9.09,1.33-12.53,4.03c-1.51,1.16-2.64,2.53-3.41,4.12v.06Z"/>
      <path class="cls-1" d="m383.88,51.22h-10.08l-31.33-29.85v29.85h-8.15V10.49h9l32.41,30.85V10.49h8.15v40.73Z"/>
      <path class="cls-1" d="m473.31,10.49h9.6l-23.8,40.73h-10.51l-23.8-40.73h9.6l19.49,33.35,19.43-33.35Z"/>
      <path class="cls-1" d="m489.83,51.22V10.49h43.8v7.33h-35.65v8.15h33.2v7.75h-33.2v10.17h35.65v7.33h-43.8Z"/>
      <path class="cls-1" d="m584.93,32.13c-1.19,1.19-2.53,2.1-4,2.76-.99.43-1.87.68-2.61.74l9.54,15.59h-9.66l-9.37-15.37-17.67.06v15.31h-8.15V10.38h32.98c1.73,0,3.38.34,4.94,1.05,1.48.62,2.81,1.53,4,2.73s2.1,2.53,2.73,4c.65,1.62.99,3.27.99,4.94s-.34,3.32-.99,4.94c-.68,1.56-1.59,2.93-2.76,4.09h.03Zm-8.95-3.98c1.36,0,2.53-.48,3.49-1.45.97-.97,1.45-2.16,1.45-3.55s-.48-2.53-1.45-3.58c-.96-.97-2.13-1.45-3.49-1.45h-24.82v10.05l24.82-.06v.03Z"/>
      <path class="cls-1" d="m645.69,18.64h-20.02v32.69h-8.15V18.64h-20v-8.15h48.17v8.15Z"/>
      <path class="cls-1" d="m655.11,51.22V10.49h43.8v7.33h-35.65v8.15h33.2v7.75h-33.2v10.17h35.65v7.33h-43.8Z"/>
      <path class="cls-1" d="m756.94,10.55l-20.08,20.37,20.08,20.37h-10.71l-14.71-14.94-14.77,14.94h-10.71l20.08-20.37-20.08-20.37h10.71l14.77,14.91,14.71-14.91h10.71Z"/>
    </g>
    <g>
      <path class="cls-2" d="m138.18,77.13c1.1.39,1.98.94,2.61,1.65.75.86,1.13,1.89,1.13,3.1,0,.63-.09,1.21-.27,1.73-.17.5-.46.98-.85,1.46-.64.77-1.53,1.36-2.66,1.77-1.71.66-4.08.98-7.13.97-2.07,0-3.98-.27-5.72-.79-1.84-.52-3.24-1.29-4.19-2.28-.28-.28-.5-.55-.64-.82l3.18-1.99c.04.07.09.13.17.2.5.5,1.34.93,2.54,1.3,1.41.4,2.96.6,4.63.6,2.57,0,4.49-.24,5.76-.71.55-.2.94-.44,1.17-.73.16-.2.24-.46.26-.77,0-.24-.07-.46-.2-.63-.23-.23-.58-.43-1.06-.6-.91-.31-2.83-.62-5.78-.93l-.31-.03c-3.26-.34-5.51-.73-6.72-1.17-1.09-.36-1.96-.9-2.62-1.61-.75-.86-1.13-1.91-1.13-3.13,0-.59.09-1.17.3-1.73.2-.55.48-1.03.85-1.46.6-.74,1.49-1.33,2.66-1.79,1.65-.64,4.03-.97,7.13-.97,2.14,0,4.03.26,5.7.78,1.81.52,3.21,1.29,4.18,2.28.17.17.39.44.64.81l-3.21,1.99-.15-.2c-.47-.51-1.32-.94-2.54-1.29-1.38-.42-2.93-.63-4.63-.63-2.59,0-4.51.24-5.78.71-.56.23-.95.47-1.15.73-.16.2-.24.46-.26.77,0,.34.07.55.2.64.15.17.5.38,1.05.6.91.31,2.85.62,5.82.93l.27.03c3.29.35,5.53.74,6.73,1.15l.03.04Z"/>
      <path class="cls-2" d="m149.7,85.18c-2.42-1.91-3.63-4.33-3.63-7.27,0-1.46.34-2.83.99-4.11.63-1.2,1.5-2.26,2.63-3.18,2.27-1.8,5.02-2.7,8.26-2.69,3.26,0,6.02.89,8.25,2.66,2.42,1.91,3.63,4.35,3.63,7.32,0,1.45-.32,2.81-.98,4.07-.6,1.21-1.48,2.27-2.62,3.2-2.27,1.8-5.02,2.7-8.26,2.69-3.29.01-6.04-.89-8.26-2.69h-.01Zm.71-9.63c-.39.75-.58,1.54-.58,2.39s.19,1.64.58,2.39c.36.71.9,1.37,1.61,1.96,1.56,1.25,3.53,1.87,5.92,1.87s4.34-.63,5.91-1.89c.71-.55,1.26-1.21,1.65-1.97.39-.74.58-1.53.58-2.38s-.19-1.68-.58-2.42c-.39-.71-.93-1.37-1.63-1.96-1.6-1.25-3.57-1.87-5.94-1.87s-4.3.63-5.92,1.91c-.71.55-1.25,1.2-1.61,1.95v.03Z"/>
      <path class="cls-2" d="m194.81,87.59h-20.61v-19.26h3.86v15.61h16.75v3.65Z"/>
      <path class="cls-2" d="m219.69,68.32h3.77v9.63c0,1.46-.34,2.84-.99,4.1-.64,1.25-1.53,2.31-2.65,3.18-2.27,1.81-5.02,2.73-8.25,2.73s-6-.9-8.29-2.7c-2.4-1.92-3.6-4.35-3.6-7.29v-9.6h3.75v9.6c0,.85.19,1.64.58,2.39.39.75.93,1.41,1.63,1.96,1.6,1.25,3.57,1.87,5.94,1.87s4.33-.62,5.92-1.87c.74-.59,1.28-1.25,1.62-1.99.39-.71.58-1.5.58-2.36v-9.64Z"/>
      <path class="cls-2" d="m251.5,72.19h-9.47v15.46h-3.86v-15.46h-9.46v-3.86h22.78v3.86Z"/>
      <path class="cls-2" d="m255.97,68.36h3.86v19.26h-3.86v-19.26Z"/>
      <path class="cls-2" d="m267.84,85.18c-2.42-1.91-3.63-4.33-3.63-7.27,0-1.46.34-2.83.99-4.11.63-1.2,1.5-2.26,2.63-3.18,2.27-1.8,5.02-2.7,8.26-2.69,3.26,0,6.02.89,8.25,2.66,2.42,1.91,3.63,4.35,3.63,7.32,0,1.45-.32,2.81-.98,4.07-.6,1.21-1.48,2.27-2.62,3.2-2.27,1.8-5.02,2.7-8.26,2.69-3.29.01-6.05-.89-8.26-2.69h-.01Zm.71-9.63c-.39.75-.58,1.54-.58,2.39s.19,1.64.58,2.39c.36.71.9,1.37,1.61,1.96,1.56,1.25,3.53,1.87,5.92,1.87s4.34-.63,5.91-1.89c.71-.55,1.26-1.21,1.65-1.97.39-.74.58-1.53.58-2.38s-.19-1.68-.58-2.42c-.39-.71-.93-1.37-1.63-1.96-1.6-1.25-3.57-1.87-5.94-1.87s-4.3.63-5.92,1.91c-.71.55-1.25,1.2-1.61,1.95v.03Z"/>
      <path class="cls-2" d="m315.81,87.59h-4.77l-14.82-14.12v14.12h-3.86v-19.26h4.26l15.33,14.59v-14.59h3.86v19.26Z"/>
      <path class="cls-2" d="m338,77.13c1.1.39,1.98.94,2.61,1.65.75.86,1.13,1.89,1.13,3.1,0,.63-.09,1.21-.27,1.73-.18.5-.46.98-.85,1.46-.64.77-1.53,1.36-2.66,1.77-1.71.66-4.08.98-7.13.97-2.07,0-3.98-.27-5.72-.79-1.84-.52-3.24-1.29-4.19-2.28-.28-.28-.5-.55-.64-.82l3.18-1.99c.04.07.1.13.18.2.5.5,1.34.93,2.54,1.3,1.41.4,2.96.6,4.63.6,2.57,0,4.49-.24,5.76-.71.55-.2.94-.44,1.17-.73.16-.2.24-.46.25-.77,0-.24-.07-.46-.2-.63-.23-.23-.58-.43-1.06-.6-.91-.31-2.84-.62-5.78-.93l-.31-.03c-3.26-.34-5.51-.73-6.72-1.17-1.09-.36-1.96-.9-2.62-1.61-.75-.86-1.13-1.91-1.13-3.13,0-.59.09-1.17.3-1.73.2-.55.48-1.03.85-1.46.61-.74,1.49-1.33,2.66-1.79,1.65-.64,4.03-.97,7.13-.97,2.14,0,4.03.26,5.7.78,1.81.52,3.21,1.29,4.18,2.28.18.17.39.44.64.81l-3.21,1.99-.15-.2c-.47-.51-1.32-.94-2.54-1.29-1.38-.42-2.93-.63-4.63-.63-2.59,0-4.51.24-5.78.71-.56.23-.95.47-1.15.73-.16.2-.24.46-.26.77,0,.34.07.55.2.64.15.17.5.38,1.05.6.91.31,2.85.62,5.82.93l.27.03c3.29.35,5.53.74,6.73,1.15l.03.04Z"/>
    </g>
  </g>
</svg>